<mxfile host="app.diagrams.net" modified="2023-08-31T08:36:16.407Z" agent="Mozilla/5.0 (Macintosh; Intel Mac OS X 10_15_7) AppleWebKit/537.36 (KHTML, like Gecko) Chrome/116.0.0.0 Safari/537.36" etag="6dBbBjwLSlDflRBiyJ8b" version="21.6.9" type="github">
  <diagram id="C5RBs43oDa-KdzZeNtuy" name="Page-1">
    <mxGraphModel dx="1546" dy="745" grid="1" gridSize="10" guides="1" tooltips="1" connect="1" arrows="1" fold="1" page="1" pageScale="1" pageWidth="827" pageHeight="1169" math="0" shadow="0">
      <root>
        <mxCell id="WIyWlLk6GJQsqaUBKTNV-0" />
        <mxCell id="WIyWlLk6GJQsqaUBKTNV-1" parent="WIyWlLk6GJQsqaUBKTNV-0" />
        <mxCell id="1VEc2jM9hIzVfTDxc6-s-0" value="Authorization" style="swimlane;fontStyle=1;align=center;verticalAlign=top;childLayout=stackLayout;horizontal=1;startSize=26;horizontalStack=0;resizeParent=1;resizeParentMax=0;resizeLast=0;collapsible=1;marginBottom=0;whiteSpace=wrap;html=1;" vertex="1" parent="WIyWlLk6GJQsqaUBKTNV-1">
          <mxGeometry x="20" y="60" width="430" height="190" as="geometry" />
        </mxCell>
        <mxCell id="1VEc2jM9hIzVfTDxc6-s-1" value="+ getter: PolicyGetter" style="text;strokeColor=none;fillColor=none;align=left;verticalAlign=top;spacingLeft=4;spacingRight=4;overflow=hidden;rotatable=0;points=[[0,0.5],[1,0.5]];portConstraint=eastwest;whiteSpace=wrap;html=1;" vertex="1" parent="1VEc2jM9hIzVfTDxc6-s-0">
          <mxGeometry y="26" width="430" height="26" as="geometry" />
        </mxCell>
        <mxCell id="1VEc2jM9hIzVfTDxc6-s-2" value="" style="line;strokeWidth=1;fillColor=none;align=left;verticalAlign=middle;spacingTop=-1;spacingLeft=3;spacingRight=3;rotatable=0;labelPosition=right;points=[];portConstraint=eastwest;strokeColor=inherit;" vertex="1" parent="1VEc2jM9hIzVfTDxc6-s-0">
          <mxGeometry y="52" width="430" height="8" as="geometry" />
        </mxCell>
        <mxCell id="1VEc2jM9hIzVfTDxc6-s-3" value="+ Create(*ladon.DefaultPolicy): error&lt;br&gt;+ Update(*ladon.DefaultPolicy): error&lt;br&gt;+ Delete(string): error&lt;br&gt;+ DeleteCollection([]string): error&lt;br&gt;+ Get(string): *ladon.DefaultPolicy,error&lt;br&gt;+ List(string): []*ladon.DefaultPolicy,error&lt;br&gt;+ LogRejectedAccessRequest(*ladon.Request,ladon.Policies,ladon.Policies)&lt;br&gt;+ LogGrantedAccessRequest(*ladon.Request,ladon.Policies,ladon.Policies)&lt;br&gt;" style="text;strokeColor=none;fillColor=none;align=left;verticalAlign=top;spacingLeft=4;spacingRight=4;overflow=hidden;rotatable=0;points=[[0,0.5],[1,0.5]];portConstraint=eastwest;whiteSpace=wrap;html=1;" vertex="1" parent="1VEc2jM9hIzVfTDxc6-s-0">
          <mxGeometry y="60" width="430" height="130" as="geometry" />
        </mxCell>
        <mxCell id="1VEc2jM9hIzVfTDxc6-s-4" value="&lt;span style=&quot;font-weight: normal;&quot;&gt;«interface»&lt;/span&gt;&lt;br style=&quot;border-color: var(--border-color); font-weight: 400;&quot;&gt;&lt;b style=&quot;border-color: var(--border-color);&quot;&gt;PolicyGetter&lt;/b&gt;" style="swimlane;fontStyle=1;align=center;verticalAlign=top;childLayout=stackLayout;horizontal=1;startSize=40;horizontalStack=0;resizeParent=1;resizeParentMax=0;resizeLast=0;collapsible=1;marginBottom=0;whiteSpace=wrap;html=1;" vertex="1" parent="WIyWlLk6GJQsqaUBKTNV-1">
          <mxGeometry x="480" y="60" width="300" height="70" as="geometry" />
        </mxCell>
        <mxCell id="1VEc2jM9hIzVfTDxc6-s-5" value="+ GetPolicy(string): []*ladon.DefaultPolicy,error" style="text;strokeColor=none;fillColor=none;align=left;verticalAlign=top;spacingLeft=4;spacingRight=4;overflow=hidden;rotatable=0;points=[[0,0.5],[1,0.5]];portConstraint=eastwest;whiteSpace=wrap;html=1;" vertex="1" parent="1VEc2jM9hIzVfTDxc6-s-4">
          <mxGeometry y="40" width="300" height="30" as="geometry" />
        </mxCell>
      </root>
    </mxGraphModel>
  </diagram>
</mxfile>
